  0
SECTION
  2
HEADER
  9
$ACADVER
  1
AC1014
  9
$HANDSEED
  5
FFFF
  9
$INSUNITS
 70
     0
  9
$MEASUREMENT
 70
     1
  0
ENDSEC
  0
SECTION
  2
TABLES
  0
TABLE
  2
VPORT
  5
8
330
0
100
AcDbSymbolTable
 70
     4
  0
VPORT
  5
2E
330
8
100
AcDbSymbolTableRecord
100
AcDbViewportTableRecord
  2
*ACTIVE
 70
     0
 10
0.0
 20
0.0
 11
1.0
 21
1.0
 12
210.0
 22
148.5
 13
0.0
 23
0.0
 14
10.0
 24
10.0
 15
10.0
 25
10.0
 16
0.0
 26
0.0
 36
1.0
 17
0.0
 27
0.0
 37
0.0
 40
341.0
 41
1.24
 42
50.0
 43
0.0
 44
0.0
 50
0.0
 51
0.0
 71
     0
 72
   100
 73
     1
 74
     3
 75
     0
 76
     0
 77
     0
 78
     0
  0
ENDTAB
  0
TABLE
  2
LTYPE
  5
5
330
0
100
AcDbSymbolTable
 70
     1
  0
LTYPE
  5
14
330
5
100
AcDbSymbolTableRecord
100
AcDbLinetypeTableRecord
  2
BYBLOCK
 70
     0
  3

 72
    65
 73
     0
 40
0.0
  0
LTYPE
  5
15
330
5
100
AcDbSymbolTableRecord
100
AcDbLinetypeTableRecord
  2
BYLAYER
 70
     0
  3

 72
    65
 73
     0
 40
0.0
  0
LTYPE
  5
16
330
5
100
AcDbSymbolTableRecord
100
AcDbLinetypeTableRecord
  2
CONTINUOUS
 70
     0
  3
Solid line
 72
    65
 73
     0
 40
0.0
  0
ENDTAB
  0
TABLE
  2
LAYER
  5
2
100
AcDbSymbolTable
 70
1
  0
LAYER
  5
50
100
AcDbSymbolTableRecord
100
AcDbLayerTableRecord
  2
0
 70
0
  6
CONTINUOUS
  0
ENDTAB
  0
TABLE
  2
STYLE
  5
3
330
0
100
AcDbSymbolTable
 70
     1
  0
STYLE
  5
11
330
3
100
AcDbSymbolTableRecord
100
AcDbTextStyleTableRecord
  2
STANDARD
 70
     0
 40
0.0
 41
1.0
 50
0.0
 71
     0
 42
2.5
  3
txt
  4

  0
ENDTAB
  0
TABLE
  2
VIEW
  5
6
330
0
100
AcDbSymbolTable
 70
     0
  0
ENDTAB
  0
TABLE
  2
UCS
  5
7
330
0
100
AcDbSymbolTable
 70
     0
  0
ENDTAB
  0
TABLE
  2
APPID
  5
9
330
0
100
AcDbSymbolTable
 70
     2
  0
APPID
  5
12
330
9
100
AcDbSymbolTableRecord
100
AcDbRegAppTableRecord
  2
ACAD
 70
     0
  0
ENDTAB
  0
TABLE
  2
DIMSTYLE
  5
A
330
0
100
AcDbSymbolTable
 70
     1
  0
DIMSTYLE
105
27
330
A
100
AcDbSymbolTableRecord
100
AcDbDimStyleTableRecord
  2
ISO-25
 70
     0
  3

  4

  5

  6

  7

 40
1.0
 41
2.5
 42
0.625
 43
3.75
 44
1.25
 45
0.0
 46
0.0
 47
0.0
 48
0.0
140
2.5
141
2.5
142
0.0
143
0.03937007874016
144
1.0
145
0.0
146
1.0
147
0.625
 71
     0
 72
     0
 73
     0
 74
     0
 75
     0
 76
     0
 77
     1
 78
     8
170
     0
171
     3
172
     1
173
     0
174
     0
175
     0
176
     0
177
     0
178
     0
270
     2
271
     2
272
     2
273
     2
274
     3
340
11
275
     0
280
     0
281
     0
282
     0
283
     0
284
     8
285
     0
286
     0
287
     3
288
     0
  0
ENDTAB
  0
TABLE
  2
BLOCK_RECORD
  5
1
330
0
100
AcDbSymbolTable
 70
     1
  0
BLOCK_RECORD
  5
1F
330
1
100
AcDbSymbolTableRecord
100
AcDbBlockTableRecord
  2
*MODEL_SPACE
  0
BLOCK_RECORD
  5
1B
330
1
100
AcDbSymbolTableRecord
100
AcDbBlockTableRecord
  2
*PAPER_SPACE
  0
ENDTAB
  0
ENDSEC
  0
SECTION
  2
BLOCKS
  0
BLOCK
  5
20
330
1F
100
AcDbEntity
  8
0
100
AcDbBlockBegin
  2
*MODEL_SPACE
 70
     0
 10
0.0
 20
0.0
 30
0.0
  3
*MODEL_SPACE
  1

  0
ENDBLK
  5
21
330
1F
100
AcDbEntity
  8
0
100
AcDbBlockEnd
  0
BLOCK
  5
1C
330
1B
100
AcDbEntity
 67
     1
  8
0
100
AcDbBlockBegin
  2
*PAPER_SPACE
  1

  0
ENDBLK
  5
1D
330
1B
100
AcDbEntity
 67
     1
  8
0
100
AcDbBlockEnd
  0
ENDSEC
  0
SECTION
  2
ENTITIES
  0
SPLINE
  5
100
100
AcDbEntity
  8
0
 62
7
100
AcDbSpline
 70
8
 71
3
 72
8
 73
4
 74
0
 40
0
 40
0
 40
0
 40
0
 40
1
 40
1
 40
1
 40
1
 10
96.749859
 20
46.292250
 30
0.0
 10
96.760284
 20
47.385970
 30
0.0
 10
96.722056
 20
48.361295
 30
0.0
 10
96.673412
 20
49.099742
 30
0.0
  0
SPLINE
  5
101
100
AcDbEntity
  8
0
 62
7
100
AcDbSpline
 70
8
 71
3
 72
8
 73
4
 74
0
 40
0
 40
0
 40
0
 40
0
 40
1
 40
1
 40
1
 40
1
 10
96.673412
 20
49.099742
 30
0.0
 10
96.391913
 20
53.314455
 30
0.0
 10
94.810655
 20
66.366166
 30
0.0
 10
90.914837
 20
76.021697
 30
0.0
  0
SPLINE
  5
102
100
AcDbEntity
  8
0
 62
7
100
AcDbSpline
 70
8
 71
3
 72
8
 73
4
 74
0
 40
0
 40
0
 40
0
 40
0
 40
1
 40
1
 40
1
 40
1
 10
90.914837
 20
76.021697
 30
0.0
 10
90.205883
 20
77.780730
 30
0.0
 10
89.371804
 20
79.574605
 30
0.0
 10
88.457796
 20
81.340611
 30
0.0
  0
SPLINE
  5
103
100
AcDbEntity
  8
0
 62
7
100
AcDbSpline
 70
8
 71
3
 72
8
 73
4
 74
0
 40
0
 40
0
 40
0
 40
0
 40
1
 40
1
 40
1
 40
1
 10
88.457796
 20
81.340611
 30
0.0
 10
89.503865
 20
82.713008
 30
0.0
 10
90.452615
 20
84.193385
 30
0.0
 10
91.168527
 20
85.732973
 30
0.0
  0
SPLINE
  5
104
100
AcDbEntity
  8
0
 62
7
100
AcDbSpline
 70
8
 71
3
 72
8
 73
4
 74
0
 40
0
 40
0
 40
0
 40
0
 40
1
 40
1
 40
1
 40
1
 10
91.168527
 20
85.732973
 30
0.0
 10
91.168527
 20
85.732973
 30
0.0
 10
97.246844
 20
84.409346
 30
0.0
 10
102.046233
 20
92.267535
 30
0.0
  0
SPLINE
  5
105
100
AcDbEntity
  8
0
 62
7
100
AcDbSpline
 70
8
 71
3
 72
8
 73
4
 74
0
 40
0
 40
0
 40
0
 40
0
 40
1
 40
1
 40
1
 40
1
 10
102.046233
 20
92.267535
 30
0.0
 10
107.300887
 20
100.867655
 30
0.0
 10
111.592872
 20
114.581171
 30
0.0
 10
105.684862
 20
120.154355
 30
0.0
  0
SPLINE
  5
106
100
AcDbEntity
  8
0
 62
7
100
AcDbSpline
 70
8
 71
3
 72
8
 73
4
 74
0
 40
0
 40
0
 40
0
 40
0
 40
1
 40
1
 40
1
 40
1
 10
105.684862
 20
120.154355
 30
0.0
 10
100.517091
 20
125.034377
 30
0.0
 10
80.530640
 20
132.060065
 30
0.0
 10
56.050624
 20
128.709192
 30
0.0
  0
SPLINE
  5
107
100
AcDbEntity
  8
0
 62
7
100
AcDbSpline
 70
8
 71
3
 72
8
 73
4
 74
0
 40
0
 40
0
 40
0
 40
0
 40
1
 40
1
 40
1
 40
1
 10
56.050624
 20
128.709192
 30
0.0
 10
34.712296
 20
125.786750
 30
0.0
 10
43.831479
 20
92.480009
 30
0.0
 10
51.890700
 20
90.027815
 30
0.0
  0
SPLINE
  5
108
100
AcDbEntity
  8
0
 62
7
100
AcDbSpline
 70
8
 71
3
 72
8
 73
4
 74
0
 40
0
 40
0
 40
0
 40
0
 40
1
 40
1
 40
1
 40
1
 10
51.890700
 20
90.027815
 30
0.0
 10
52.648312
 20
89.797911
 30
0.0
 10
53.465001
 20
89.616797
 30
0.0
 10
54.323410
 20
89.466996
 30
0.0
  0
SPLINE
  5
109
100
AcDbEntity
  8
0
 62
7
100
AcDbSpline
 70
8
 71
3
 72
8
 73
4
 74
0
 40
0
 40
0
 40
0
 40
0
 40
1
 40
1
 40
1
 40
1
 10
54.323410
 20
89.466996
 30
0.0
 10
53.280820
 20
87.488519
 30
0.0
 10
52.279934
 20
85.238360
 30
0.0
 10
51.317269
 20
82.716498
 30
0.0
  0
SPLINE
  5
10a
100
AcDbEntity
  8
0
 62
7
100
AcDbSpline
 70
8
 71
3
 72
8
 73
4
 74
0
 40
0
 40
0
 40
0
 40
0
 40
1
 40
1
 40
1
 40
1
 10
45.054775
 20
57.821768
 30
0.0
 10
44.491776
 20
52.725788
 30
0.0
 10
44.596052
 20
48.274217
 30
0.0
 10
45.457920
 20
44.494888
 30
0.0
  0
SPLINE
  5
10b
100
AcDbEntity
  8
0
 62
7
100
AcDbSpline
 70
8
 71
3
 72
8
 73
4
 74
0
 40
0
 40
0
 40
0
 40
0
 40
1
 40
1
 40
1
 40
1
 10
45.457920
 20
44.494888
 30
0.0
 10
45.402305
 20
44.561070
 30
0.0
 10
45.353664
 20
44.627251
 30
0.0
 10
45.298049
 20
44.689950
 30
0.0
  0
SPLINE
  5
10c
100
AcDbEntity
  8
0
 62
7
100
AcDbSpline
 70
8
 71
3
 72
8
 73
4
 74
0
 40
0
 40
0
 40
0
 40
0
 40
1
 40
1
 40
1
 40
1
 10
45.298049
 20
44.689950
 30
0.0
 10
44.380566
 20
45.707070
 30
0.0
 10
43.205932
 20
46.762481
 30
0.0
 10
41.416146
 20
46.884387
 30
0.0
  0
SPLINE
  5
10d
100
AcDbEntity
  8
0
 62
7
100
AcDbSpline
 70
8
 71
3
 72
8
 73
4
 74
0
 40
0
 40
0
 40
0
 40
0
 40
1
 40
1
 40
1
 40
1
 10
41.416146
 20
46.884387
 30
0.0
 10
41.353594
 20
46.887871
 30
0.0
 10
41.291039
 20
46.891354
 30
0.0
 10
41.228487
 20
46.891354
 30
0.0
  0
SPLINE
  5
10e
100
AcDbEntity
  8
0
 62
7
100
AcDbSpline
 70
8
 71
3
 72
8
 73
4
 74
0
 40
0
 40
0
 40
0
 40
0
 40
1
 40
1
 40
1
 40
1
 10
41.228487
 20
46.891354
 30
0.0
 10
40.005174
 20
46.936636
 30
0.0
 10
38.851371
 20
46.602238
 30
0.0
 10
37.798345
 20
45.898637
 30
0.0
  0
LWPOLYLINE
  5
10f
100
AcDbEntity
  8
0
 62
7
100
AcDbPolyline
 90
6
 70
0
 10
51.317269
 20
82.716498
 30
0.0
 10
25.572239
 20
103.358161
 30
0.0
 10
0.244253
 20
71.629338
 30
0.0
 10
18.427026
 20
57.048499
 30
0.0
 10
29.210892
 20
70.556493
 30
0.0
 10
45.054775
 20
57.821768
 30
0.0
  0
SPLINE
  5
110
100
AcDbEntity
  8
0
 62
7
100
AcDbSpline
 70
8
 71
3
 72
8
 73
4
 74
0
 40
0
 40
0
 40
0
 40
0
 40
1
 40
1
 40
1
 40
1
 10
36.571571
 20
44.470499
 30
0.0
 10
36.519434
 20
44.372978
 30
0.0
 10
36.470794
 20
44.275437
 30
0.0
 10
36.418657
 20
44.177917
 30
0.0
  0
SPLINE
  5
111
100
AcDbEntity
  8
0
 62
7
100
AcDbSpline
 70
8
 71
3
 72
8
 73
4
 74
0
 40
0
 40
0
 40
0
 40
0
 40
1
 40
1
 40
1
 40
1
 10
36.418657
 20
44.177917
 30
0.0
 10
35.820916
 20
43.091146
 30
0.0
 10
35.615863
 20
41.959093
 30
0.0
 10
35.518544
 20
40.875791
 30
0.0
  0
SPLINE
  5
112
100
AcDbEntity
  8
0
 62
7
100
AcDbSpline
 70
8
 71
3
 72
8
 73
4
 74
0
 40
0
 40
0
 40
0
 40
0
 40
1
 40
1
 40
1
 40
1
 10
35.518544
 20
40.875791
 30
0.0
 10
34.336956
 20
40.050263
 30
0.0
 10
33.450758
 20
39.036651
 30
0.0
 10
32.731368
 20
38.134481
 30
0.0
  0
SPLINE
  5
113
100
AcDbEntity
  8
0
 62
7
100
AcDbSpline
 70
8
 71
3
 72
8
 73
4
 74
0
 40
0
 40
0
 40
0
 40
0
 40
1
 40
1
 40
1
 40
1
 10
32.731368
 20
38.134481
 30
0.0
 10
31.601895
 20
36.723773
 30
0.0
 10
31.219598
 20
34.860250
 30
0.0
 10
31.702672
 20
33.146499
 30
0.0
  0
SPLINE
  5
114
100
AcDbEntity
  8
0
 62
7
100
AcDbSpline
 70
8
 71
3
 72
8
 73
4
 74
0
 40
0
 40
0
 40
0
 40
0
 40
1
 40
1
 40
1
 40
1
 10
31.702672
 20
33.146499
 30
0.0
 10
32.168373
 20
31.491960
 30
0.0
 10
33.363876
 20
30.206645
 30
0.0
 10
34.979876
 20
29.624926
 30
0.0
  0
SPLINE
  5
115
100
AcDbEntity
  8
0
 62
7
100
AcDbSpline
 70
8
 71
3
 72
8
 73
4
 74
0
 40
0
 40
0
 40
0
 40
0
 40
1
 40
1
 40
1
 40
1
 10
34.979876
 20
29.624926
 30
0.0
 10
36.151052
 20
29.206934
 30
0.0
 10
37.315288
 20
28.970077
 30
0.0
 10
38.434325
 20
28.931765
 30
0.0
  0
SPLINE
  5
116
100
AcDbEntity
  8
0
 62
7
100
AcDbSpline
 70
8
 71
3
 72
8
 73
4
 74
0
 40
0
 40
0
 40
0
 40
0
 40
1
 40
1
 40
1
 40
1
 10
38.434325
 20
28.931765
 30
0.0
 10
40.293624
 20
28.862097
 30
0.0
 10
42.066017
 20
29.314935
 30
0.0
 10
43.706348
 20
30.279779
 30
0.0
  0
SPLINE
  5
117
100
AcDbEntity
  8
0
 62
7
100
AcDbSpline
 70
8
 71
3
 72
8
 73
4
 74
0
 40
0
 40
0
 40
0
 40
0
 40
1
 40
1
 40
1
 40
1
 10
43.706348
 20
30.279779
 30
0.0
 10
43.716774
 20
30.286745
 30
0.0
 10
43.727234
 20
30.290228
 30
0.0
 10
43.737625
 20
30.293712
 30
0.0
  0
SPLINE
  5
118
100
AcDbEntity
  8
0
 62
7
100
AcDbSpline
 70
8
 71
3
 72
8
 73
4
 74
0
 40
0
 40
0
 40
0
 40
0
 40
1
 40
1
 40
1
 40
1
 10
43.737625
 20
30.293712
 30
0.0
 10
43.761952
 20
30.283262
 30
0.0
 10
43.807135
 20
30.265846
 30
0.0
 10
43.866211
 20
30.230996
 30
0.0
  0
SPLINE
  5
119
100
AcDbEntity
  8
0
 62
7
100
AcDbSpline
 70
8
 71
3
 72
8
 73
4
 74
0
 40
0
 40
0
 40
0
 40
0
 40
1
 40
1
 40
1
 40
1
 10
43.866211
 20
30.230996
 30
0.0
 10
44.324955
 20
29.983700
 30
0.0
 10
44.808025
 20
29.715483
 30
0.0
 10
45.270226
 20
29.471653
 30
0.0
  0
SPLINE
  5
11a
100
AcDbEntity
  8
0
 62
7
100
AcDbSpline
 70
8
 71
3
 72
8
 73
4
 74
0
 40
0
 40
0
 40
0
 40
0
 40
1
 40
1
 40
1
 40
1
 10
45.270226
 20
29.471653
 30
0.0
 10
45.138185
 20
29.346260
 30
0.0
 10
45.026972
 20
29.199971
 30
0.0
 10
44.894907
 20
29.067608
 30
0.0
  0
SPLINE
  5
11b
100
AcDbEntity
  8
0
 62
7
100
AcDbSpline
 70
8
 71
3
 72
8
 73
4
 74
0
 40
0
 40
0
 40
0
 40
0
 40
1
 40
1
 40
1
 40
1
 10
44.894907
 20
29.067608
 30
0.0
 10
43.230225
 20
27.413069
 30
0.0
 10
42.041679
 20
25.762016
 30
0.0
 10
41.360513
 20
24.166686
 30
0.0
  0
SPLINE
  5
11c
100
AcDbEntity
  8
0
 62
7
100
AcDbSpline
 70
8
 71
3
 72
8
 73
4
 74
0
 40
0
 40
0
 40
0
 40
0
 40
1
 40
1
 40
1
 40
1
 10
41.360513
 20
24.166686
 30
0.0
 10
40.741920
 20
22.714181
 30
0.0
 10
40.547303
 20
21.282552
 30
0.0
 10
40.790581
 20
20.021623
 30
0.0
  0
SPLINE
  5
11d
100
AcDbEntity
  8
0
 62
7
100
AcDbSpline
 70
8
 71
3
 72
8
 73
4
 74
0
 40
0
 40
0
 40
0
 40
0
 40
1
 40
1
 40
1
 40
1
 10
40.790581
 20
20.021623
 30
0.0
 10
41.068602
 20
18.590015
 30
0.0
 10
41.902681
 20
17.454475
 30
0.0
 10
43.021717
 20
16.984248
 30
0.0
  0
SPLINE
  5
11e
100
AcDbEntity
  8
0
 62
7
100
AcDbSpline
 70
8
 71
3
 72
8
 73
4
 74
0
 40
0
 40
0
 40
0
 40
0
 40
1
 40
1
 40
1
 40
1
 10
43.021717
 20
16.984248
 30
0.0
 10
43.167673
 20
16.925040
 30
0.0
 10
43.369247
 20
16.841425
 30
0.0
 10
43.602085
 20
16.761317
 30
0.0
  0
SPLINE
  5
11f
100
AcDbEntity
  8
0
 62
7
100
AcDbSpline
 70
8
 71
3
 72
8
 73
4
 74
0
 40
0
 40
0
 40
0
 40
0
 40
1
 40
1
 40
1
 40
1
 10
43.602085
 20
16.761317
 30
0.0
 10
44.783694
 20
16.364225
 30
0.0
 10
45.958349
 20
16.332886
 30
0.0
 10
47.139937
 20
16.677723
 30
0.0
  0
SPLINE
  5
120
100
AcDbEntity
  8
0
 62
7
100
AcDbSpline
 70
8
 71
3
 72
8
 73
4
 74
0
 40
0
 40
0
 40
0
 40
0
 40
1
 40
1
 40
1
 40
1
 10
47.139937
 20
16.677723
 30
0.0
 10
47.136462
 20
16.012435
 30
0.0
 10
47.240735
 20
15.409820
 30
0.0
 10
47.442288
 20
14.862948
 30
0.0
  0
SPLINE
  5
121
100
AcDbEntity
  8
0
 62
7
100
AcDbSpline
 70
8
 71
3
 72
8
 73
4
 74
0
 40
0
 40
0
 40
0
 40
0
 40
1
 40
1
 40
1
 40
1
 10
47.442288
 20
14.862948
 30
0.0
 10
47.852391
 20
13.769228
 30
0.0
 10
48.655185
 20
12.975039
 30
0.0
 10
49.760327
 20
12.567503
 30
0.0
  0
SPLINE
  5
122
100
AcDbEntity
  8
0
 62
7
100
AcDbSpline
 70
8
 71
3
 72
8
 73
4
 74
0
 40
0
 40
0
 40
0
 40
0
 40
1
 40
1
 40
1
 40
1
 10
49.760327
 20
12.567503
 30
0.0
 10
49.795080
 20
12.553570
 30
0.0
 10
49.829837
 20
12.539637
 30
0.0
 10
49.868062
 20
12.529191
 30
0.0
  0
SPLINE
  5
123
100
AcDbEntity
  8
0
 62
7
100
AcDbSpline
 70
8
 71
3
 72
8
 73
4
 74
0
 40
0
 40
0
 40
0
 40
0
 40
1
 40
1
 40
1
 40
1
 10
49.868062
 20
12.529191
 30
0.0
 10
50.563122
 20
12.295800
 30
0.0
 10
51.577902
 20
12.163434
 30
0.0
 10
52.801215
 20
12.637172
 30
0.0
  0
SPLINE
  5
124
100
AcDbEntity
  8
0
 62
7
100
AcDbSpline
 70
8
 71
3
 72
8
 73
4
 74
0
 40
0
 40
0
 40
0
 40
0
 40
1
 40
1
 40
1
 40
1
 10
52.801215
 20
12.637172
 30
0.0
 10
52.769937
 20
12.027605
 30
0.0
 10
52.804690
 20
11.449376
 30
0.0
 10
52.922843
 20
10.933864
 30
0.0
  0
SPLINE
  5
125
100
AcDbEntity
  8
0
 62
7
100
AcDbSpline
 70
8
 71
3
 72
8
 73
4
 74
0
 40
0
 40
0
 40
0
 40
0
 40
1
 40
1
 40
1
 40
1
 10
52.922843
 20
10.933864
 30
0.0
 10
53.478905
 20
8.502569
 30
0.0
 10
54.566653
 20
6.900265
 30
0.0
 10
55.984583
 20
6.423065
 30
0.0
  0
SPLINE
  5
126
100
AcDbEntity
  8
0
 62
7
100
AcDbSpline
 70
8
 71
3
 72
8
 73
4
 74
0
 40
0
 40
0
 40
0
 40
0
 40
1
 40
1
 40
1
 40
1
 10
55.984583
 20
6.423065
 30
0.0
 10
56.776961
 20
6.154848
 30
0.0
 10
57.614498
 20
6.283728
 30
0.0
 10
58.247006
 20
6.750489
 30
0.0
  0
SPLINE
  5
127
100
AcDbEntity
  8
0
 62
7
100
AcDbSpline
 70
8
 71
3
 72
8
 73
4
 74
0
 40
0
 40
0
 40
0
 40
0
 40
1
 40
1
 40
1
 40
1
 10
58.247006
 20
6.750489
 30
0.0
 10
58.194870
 20
6.457886
 30
0.0
 10
58.073241
 20
5.193491
 30
0.0
 10
59.275702
 20
3.605113
 30
0.0
  0
SPLINE
  5
128
100
AcDbEntity
  8
0
 62
7
100
AcDbSpline
 70
8
 71
3
 72
8
 73
4
 74
0
 40
0
 40
0
 40
0
 40
0
 40
1
 40
1
 40
1
 40
1
 10
59.275702
 20
3.605113
 30
0.0
 10
60.651907
 20
1.786872
 30
0.0
 10
72.679938
 20
-2.967761
 30
0.0
 10
85.548963
 20
3.347357
 30
0.0
  0
SPLINE
  5
129
100
AcDbEntity
  8
0
 62
7
100
AcDbSpline
 70
8
 71
3
 72
8
 73
4
 74
0
 40
0
 40
0
 40
0
 40
0
 40
1
 40
1
 40
1
 40
1
 10
85.548963
 20
3.347357
 30
0.0
 10
92.565594
 20
6.792284
 30
0.0
 10
96.169480
 20
11.519045
 30
0.0
 10
98.035713
 20
15.371508
 30
0.0
  0
LWPOLYLINE
  5
12a
100
AcDbEntity
  8
0
 62
7
100
AcDbPolyline
 90
9
 70
0
 10
37.798345
 20
45.898637
 30
0.0
 10
37.659347
 20
45.804583
 30
0.0
 10
37.544655
 20
45.679190
 30
0.0
 10
37.315295
 20
45.428386
 30
0.0
 10
36.856552
 20
44.923334
 30
0.0
 10
36.734903
 20
44.790971
 30
0.0
 10
36.696678
 20
44.710842
 30
0.0
 10
36.654974
 20
44.630735
 30
0.0
 10
36.571571
 20
44.470499
 30
0.0
  0
SPLINE
  5
12b
100
AcDbEntity
  8
0
 62
7
100
AcDbSpline
 70
8
 71
3
 72
8
 73
4
 74
0
 40
0
 40
0
 40
0
 40
0
 40
1
 40
1
 40
1
 40
1
 10
76.349861
 20
121.638215
 30
0.0
 10
74.931932
 20
121.690450
 30
0.0
 10
73.823311
 20
122.888688
 30
0.0
 10
73.875448
 20
124.309853
 30
0.0
  0
SPLINE
  5
12c
100
AcDbEntity
  8
0
 62
7
100
AcDbSpline
 70
8
 71
3
 72
8
 73
4
 74
0
 40
0
 40
0
 40
0
 40
0
 40
1
 40
1
 40
1
 40
1
 10
73.875448
 20
124.309853
 30
0.0
 10
73.927563
 20
125.734509
 30
0.0
 10
75.119591
 20
126.845662
 30
0.0
 10
76.540996
 20
126.793403
 30
0.0
  0
SPLINE
  5
12d
100
AcDbEntity
  8
0
 62
7
100
AcDbSpline
 70
8
 71
3
 72
8
 73
4
 74
0
 40
0
 40
0
 40
0
 40
0
 40
1
 40
1
 40
1
 40
1
 10
76.540996
 20
126.793403
 30
0.0
 10
77.962383
 20
126.741148
 30
0.0
 10
79.071004
 20
125.546396
 30
0.0
 10
79.018885
 20
124.121765
 30
0.0
  0
SPLINE
  5
12e
100
AcDbEntity
  8
0
 62
7
100
AcDbSpline
 70
8
 71
3
 72
8
 73
4
 74
0
 40
0
 40
0
 40
0
 40
0
 40
1
 40
1
 40
1
 40
1
 10
79.018885
 20
124.121765
 30
0.0
 10
78.966752
 20
122.697113
 30
0.0
 10
77.771249
 20
121.585956
 30
0.0
 10
76.349861
 20
121.638215
 30
0.0
  0
LWPOLYLINE
  5
12f
100
AcDbEntity
  8
0
 62
7
100
AcDbPolyline
 90
4
 70
0
 10
98.035713
 20
15.371508
 30
0.0
 10
115.068161
 20
1.713710
 30
0.0
 10
129.615764
 20
19.938025
 30
0.0
 10
96.749859
 20
46.292250
 30
0.0
  0
LWPOLYLINE
  5
130
100
AcDbEntity
  8
0
 62
7
100
AcDbPolyline
 90
1
 70
1
 10
76.349861
 20
121.638215
 30
0.0
  0
ENDSEC
  0
SECTION
  2
OBJECTS
  0
DICTIONARY
  5
C
330
0
100
AcDbDictionary
  3
ACAD_GROUP
350
D
  3
ACAD_MLINESTYLE
350
17
  0
DICTIONARY
  5
D
330
C
100
AcDbDictionary
  0
DICTIONARY
  5
1A
330
C
100
AcDbDictionary
  0
DICTIONARY
  5
17
330
C
100
AcDbDictionary
  3
STANDARD
350
18
  0
DICTIONARY
  5
19
330
C
100
AcDbDictionary
  0
ENDSEC
  0
EOF
