  0
SECTION
  2
HEADER
  9
$ACADVER
  1
AC1014
  9
$HANDSEED
  5
FFFF
  9
$INSUNITS
 70
     4
  9
$MEASUREMENT
 70
     1
  0
ENDSEC
  0
SECTION
  2
TABLES
  0
TABLE
  2
VPORT
  5
8
330
0
100
AcDbSymbolTable
 70
     4
  0
VPORT
  5
2E
330
8
100
AcDbSymbolTableRecord
100
AcDbViewportTableRecord
  2
*ACTIVE
 70
     0
 10
0.0
 20
0.0
 11
1.0
 21
1.0
 12
210.0
 22
148.5
 13
0.0
 23
0.0
 14
10.0
 24
10.0
 15
10.0
 25
10.0
 16
0.0
 26
0.0
 36
1.0
 17
0.0
 27
0.0
 37
0.0
 40
341.0
 41
1.24
 42
50.0
 43
0.0
 44
0.0
 50
0.0
 51
0.0
 71
     0
 72
   100
 73
     1
 74
     3
 75
     0
 76
     0
 77
     0
 78
     0
  0
ENDTAB
  0
TABLE
  2
LTYPE
  5
5
330
0
100
AcDbSymbolTable
 70
     1
  0
LTYPE
  5
14
330
5
100
AcDbSymbolTableRecord
100
AcDbLinetypeTableRecord
  2
BYBLOCK
 70
     0
  3

 72
    65
 73
     0
 40
0.0
  0
LTYPE
  5
15
330
5
100
AcDbSymbolTableRecord
100
AcDbLinetypeTableRecord
  2
BYLAYER
 70
     0
  3

 72
    65
 73
     0
 40
0.0
  0
LTYPE
  5
16
330
5
100
AcDbSymbolTableRecord
100
AcDbLinetypeTableRecord
  2
CONTINUOUS
 70
     0
  3
Solid line
 72
    65
 73
     0
 40
0.0
  0
ENDTAB
  0
TABLE
  2
LAYER
  5
2
100
AcDbSymbolTable
 70
11
  0
LAYER
  5
50
100
AcDbSymbolTableRecord
100
AcDbLayerTableRecord
  2
0
 70
0
  6
CONTINUOUS
  0
LAYER
  5
51
100
AcDbSymbolTableRecord
100
AcDbLayerTableRecord
  2
[fixed]_BG
 70
0
  6
CONTINUOUS
  0
LAYER
  5
52
100
AcDbSymbolTableRecord
100
AcDbLayerTableRecord
  2
Edge.Cuts
 70
0
  6
CONTINUOUS
  0
LAYER
  5
53
100
AcDbSymbolTableRecord
100
AcDbLayerTableRecord
  2
B.Cu
 70
0
  6
CONTINUOUS
  0
LAYER
  5
54
100
AcDbSymbolTableRecord
100
AcDbLayerTableRecord
  2
B.Mask
 70
0
  6
CONTINUOUS
  0
LAYER
  5
55
100
AcDbSymbolTableRecord
100
AcDbLayerTableRecord
  2
B.SilkS
 70
0
  6
CONTINUOUS
  0
LAYER
  5
56
100
AcDbSymbolTableRecord
100
AcDbLayerTableRecord
  2
F.Cu
 70
0
  6
CONTINUOUS
  0
LAYER
  5
57
100
AcDbSymbolTableRecord
100
AcDbLayerTableRecord
  2
F.Mask
 70
0
  6
CONTINUOUS
  0
LAYER
  5
58
100
AcDbSymbolTableRecord
100
AcDbLayerTableRecord
  2
F.SilkS
 70
0
  6
CONTINUOUS
  0
LAYER
  5
59
100
AcDbSymbolTableRecord
100
AcDbLayerTableRecord
  2
Dwgs.User
 70
0
  6
CONTINUOUS
  0
LAYER
  5
5a
100
AcDbSymbolTableRecord
100
AcDbLayerTableRecord
  2
Drill
 70
0
  6
CONTINUOUS
  0
ENDTAB
  0
TABLE
  2
STYLE
  5
3
330
0
100
AcDbSymbolTable
 70
     1
  0
STYLE
  5
11
330
3
100
AcDbSymbolTableRecord
100
AcDbTextStyleTableRecord
  2
STANDARD
 70
     0
 40
0.0
 41
1.0
 50
0.0
 71
     0
 42
2.5
  3
txt
  4

  0
ENDTAB
  0
TABLE
  2
VIEW
  5
6
330
0
100
AcDbSymbolTable
 70
     0
  0
ENDTAB
  0
TABLE
  2
UCS
  5
7
330
0
100
AcDbSymbolTable
 70
     0
  0
ENDTAB
  0
TABLE
  2
APPID
  5
9
330
0
100
AcDbSymbolTable
 70
     2
  0
APPID
  5
12
330
9
100
AcDbSymbolTableRecord
100
AcDbRegAppTableRecord
  2
ACAD
 70
     0
  0
ENDTAB
  0
TABLE
  2
DIMSTYLE
  5
A
330
0
100
AcDbSymbolTable
 70
     1
  0
DIMSTYLE
105
27
330
A
100
AcDbSymbolTableRecord
100
AcDbDimStyleTableRecord
  2
ISO-25
 70
     0
  3

  4

  5

  6

  7

 40
1.0
 41
2.5
 42
0.625
 43
3.75
 44
1.25
 45
0.0
 46
0.0
 47
0.0
 48
0.0
140
2.5
141
2.5
142
0.0
143
0.03937007874016
144
1.0
145
0.0
146
1.0
147
0.625
 71
     0
 72
     0
 73
     0
 74
     0
 75
     0
 76
     0
 77
     1
 78
     8
170
     0
171
     3
172
     1
173
     0
174
     0
175
     0
176
     0
177
     0
178
     0
270
     2
271
     2
272
     2
273
     2
274
     3
340
11
275
     0
280
     0
281
     0
282
     0
283
     0
284
     8
285
     0
286
     0
287
     3
288
     0
  0
ENDTAB
  0
TABLE
  2
BLOCK_RECORD
  5
1
330
0
100
AcDbSymbolTable
 70
     1
  0
BLOCK_RECORD
  5
1F
330
1
100
AcDbSymbolTableRecord
100
AcDbBlockTableRecord
  2
*MODEL_SPACE
  0
BLOCK_RECORD
  5
1B
330
1
100
AcDbSymbolTableRecord
100
AcDbBlockTableRecord
  2
*PAPER_SPACE
  0
ENDTAB
  0
ENDSEC
  0
SECTION
  2
BLOCKS
  0
BLOCK
  5
20
330
1F
100
AcDbEntity
  8
0
100
AcDbBlockBegin
  2
*MODEL_SPACE
 70
     0
 10
0.0
 20
0.0
 30
0.0
  3
*MODEL_SPACE
  1

  0
ENDBLK
  5
21
330
1F
100
AcDbEntity
  8
0
100
AcDbBlockEnd
  0
BLOCK
  5
1C
330
1B
100
AcDbEntity
 67
     1
  8
0
100
AcDbBlockBegin
  2
*PAPER_SPACE
  1

  0
ENDBLK
  5
1D
330
1B
100
AcDbEntity
 67
     1
  8
0
100
AcDbBlockEnd
  0
ENDSEC
  0
SECTION
  2
ENTITIES
  0
SPLINE
  5
100
100
AcDbEntity
  8
0
 62
7
100
AcDbSpline
 70
8
 71
3
 72
8
 73
4
 74
0
 40
0
 40
0
 40
0
 40
0
 40
1
 40
1
 40
1
 40
1
 10
130.167520
 20
33.486458
 30
0.0
 10
130.090157
 20
33.200586
 30
0.0
 10
129.773616
 20
33.145929
 30
0.0
 10
129.629430
 20
33.389773
 30
0.0
  0
LWPOLYLINE
  5
101
100
AcDbEntity
  8
0
 62
7
100
AcDbPolyline
 90
4
 70
0
 10
159.752524
 20
39.460446
 30
0.0
 10
141.407863
 20
21.778128
 30
0.0
 10
131.138216
 20
37.009469
 30
0.0
 10
130.167520
 20
33.486458
 30
0.0
  0
SPLINE
  5
102
100
AcDbEntity
  8
0
 62
7
100
AcDbSpline
 70
8
 71
3
 72
8
 73
4
 74
0
 40
0
 40
0
 40
0
 40
0
 40
1
 40
1
 40
1
 40
1
 10
127.090149
 20
37.640080
 30
0.0
 10
126.935401
 20
37.896524
 30
0.0
 10
126.636463
 20
37.955385
 30
0.0
 10
126.421912
 20
37.770406
 30
0.0
  0
LWPOLYLINE
  5
103
100
AcDbEntity
  8
0
 62
7
100
AcDbPolyline
 90
2
 70
0
 10
129.629430
 20
33.389773
 30
0.0
 10
127.090149
 20
37.640080
 30
0.0
  0
SPLINE
  5
104
100
AcDbEntity
  8
0
 62
7
100
AcDbSpline
 70
8
 71
3
 72
8
 73
4
 74
0
 40
0
 40
0
 40
0
 40
0
 40
1
 40
1
 40
1
 40
1
 10
123.984634
 20
35.676787
 30
0.0
 10
123.182769
 20
30.051742
 30
0.0
 10
120.333988
 20
24.830291
 30
0.0
 10
116.799407
 20
22.534860
 30
0.0
  0
SPLINE
  5
105
100
AcDbEntity
  8
0
 62
7
100
AcDbSpline
 70
8
 71
3
 72
8
 73
4
 74
0
 40
0
 40
0
 40
0
 40
0
 40
1
 40
1
 40
1
 40
1
 10
116.799407
 20
22.534860
 30
0.0
 10
108.865055
 20
17.384875
 30
0.0
 10
97.392605
 20
12.377840
 30
0.0
 10
81.179242
 20
12.810846
 30
0.0
  0
SPLINE
  5
106
100
AcDbEntity
  8
0
 62
7
100
AcDbSpline
 70
8
 71
3
 72
8
 73
4
 74
0
 40
0
 40
0
 40
0
 40
0
 40
1
 40
1
 40
1
 40
1
 10
81.179242
 20
12.810846
 30
0.0
 10
65.352742
 20
13.231253
 30
0.0
 10
54.523884
 20
17.653943
 30
0.0
 10
47.809946
 20
23.030941
 30
0.0
  0
SPLINE
  5
107
100
AcDbEntity
  8
0
 62
7
100
AcDbSpline
 70
8
 71
3
 72
8
 73
4
 74
0
 40
0
 40
0
 40
0
 40
0
 40
1
 40
1
 40
1
 40
1
 10
47.809946
 20
23.030941
 30
0.0
 10
47.718500
 20
23.106610
 30
0.0
 10
47.627055
 20
23.182283
 30
0.0
 10
47.535609
 20
23.262160
 30
0.0
  0
LWPOLYLINE
  5
108
100
AcDbEntity
  8
0
 62
7
100
AcDbPolyline
 90
2
 70
0
 10
126.421912
 20
37.770406
 30
0.0
 10
123.984634
 20
35.676787
 30
0.0
  0
SPLINE
  5
109
100
AcDbEntity
  8
0
 62
7
100
AcDbSpline
 70
8
 71
3
 72
8
 73
4
 74
0
 40
0
 40
0
 40
0
 40
0
 40
1
 40
1
 40
1
 40
1
 10
27.179209
 20
47.536481
 30
0.0
 10
27.031503
 20
47.658391
 30
0.0
 10
27.080744
 20
47.935847
 30
0.0
 10
27.260115
 20
47.969488
 30
0.0
  0
LWPOLYLINE
  5
10a
100
AcDbEntity
  8
0
 62
7
100
AcDbPolyline
 90
5
 70
0
 10
47.535609
 20
23.262160
 30
0.0
 10
23.707934
 20
0.295351
 30
0.0
 10
8.915432
 20
22.219559
 30
0.0
 10
31.469953
 20
43.958814
 30
0.0
 10
27.179209
 20
47.536481
 30
0.0
  0
SPLINE
  5
10b
100
AcDbEntity
  8
0
 62
7
100
AcDbSpline
 70
8
 71
3
 72
8
 73
4
 74
0
 40
0
 40
0
 40
0
 40
0
 40
1
 40
1
 40
1
 40
1
 10
32.243693
 20
48.953245
 30
0.0
 10
32.532091
 20
49.012081
 30
0.0
 10
32.700899
 20
49.373652
 30
0.0
 10
32.591872
 20
49.697348
 30
0.0
  0
LWPOLYLINE
  5
10c
100
AcDbEntity
  8
0
 62
7
100
AcDbPolyline
 90
2
 70
0
 10
27.260115
 20
47.969488
 30
0.0
 10
32.243693
 20
48.953245
 30
0.0
  0
SPLINE
  5
10d
100
AcDbEntity
  8
0
 62
7
100
AcDbSpline
 70
8
 71
3
 72
8
 73
4
 74
0
 40
0
 40
0
 40
0
 40
0
 40
1
 40
1
 40
1
 40
1
 10
29.890820
 20
57.601021
 30
0.0
 10
29.760691
 20
57.987787
 30
0.0
 10
30.108874
 20
58.357749
 30
0.0
 10
30.414849
 20
58.155937
 30
0.0
  0
LWPOLYLINE
  5
10e
100
AcDbEntity
  8
0
 62
7
100
AcDbPolyline
 90
2
 70
0
 10
32.591872
 20
49.697348
 30
0.0
 10
29.890820
 20
57.601021
 30
0.0
  0
SPLINE
  5
10f
100
AcDbEntity
  8
0
 62
7
100
AcDbSpline
 70
8
 71
3
 72
8
 73
4
 74
0
 40
0
 40
0
 40
0
 40
0
 40
1
 40
1
 40
1
 40
1
 10
35.549684
 20
54.767457
 30
0.0
 10
35.862679
 20
54.561461
 30
0.0
 10
36.253084
 20
54.763252
 30
0.0
 10
36.341009
 20
55.179472
 30
0.0
  0
LWPOLYLINE
  5
110
100
AcDbEntity
  8
0
 62
7
100
AcDbPolyline
 90
2
 70
0
 10
30.414849
 20
58.155937
 30
0.0
 10
35.549684
 20
54.767457
 30
0.0
  0
SPLINE
  5
111
100
AcDbEntity
  8
0
 62
7
100
AcDbSpline
 70
8
 71
3
 72
8
 73
4
 74
0
 40
0
 40
0
 40
0
 40
0
 40
1
 40
1
 40
1
 40
1
 10
37.445329
 20
60.447159
 30
0.0
 10
37.536774
 20
60.892791
 30
0.0
 10
38.039702
 20
60.981085
 30
0.0
 10
38.233133
 20
60.581694
 30
0.0
  0
LWPOLYLINE
  5
112
100
AcDbEntity
  8
0
 62
7
100
AcDbPolyline
 90
2
 70
0
 10
36.341009
 20
55.179472
 30
0.0
 10
37.445329
 20
60.447159
 30
0.0
  0
SPLINE
  5
113
100
AcDbEntity
  8
0
 62
7
100
AcDbSpline
 70
8
 71
3
 72
8
 73
4
 74
0
 40
0
 40
0
 40
0
 40
0
 40
1
 40
1
 40
1
 40
1
 10
40.244868
 20
56.478517
 30
0.0
 10
42.921301
 20
52.064244
 30
0.0
 10
43.846272
 20
54.553070
 30
0.0
 10
44.152251
 20
56.201061
 30
0.0
  0
SPLINE
  5
114
100
AcDbEntity
  8
0
 62
7
100
AcDbSpline
 70
8
 71
3
 72
8
 73
4
 74
0
 40
0
 40
0
 40
0
 40
0
 40
1
 40
1
 40
1
 40
1
 10
44.152251
 20
56.201061
 30
0.0
 10
41.212043
 20
61.666352
 30
0.0
 10
40.255408
 20
66.034385
 30
0.0
 10
40.255408
 20
66.034385
 30
0.0
  0
SPLINE
  5
115
100
AcDbEntity
  8
0
 62
7
100
AcDbSpline
 70
8
 71
3
 72
8
 73
4
 74
0
 40
0
 40
0
 40
0
 40
0
 40
1
 40
1
 40
1
 40
1
 10
40.255408
 20
66.034385
 30
0.0
 10
39.805243
 20
67.804282
 30
0.0
 10
39.460584
 20
69.620444
 30
0.0
 10
39.231972
 20
71.474452
 30
0.0
  0
SPLINE
  5
116
100
AcDbEntity
  8
0
 62
7
100
AcDbSpline
 70
8
 71
3
 72
8
 73
4
 74
0
 40
0
 40
0
 40
0
 40
0
 40
1
 40
1
 40
1
 40
1
 10
39.231972
 20
71.474452
 30
0.0
 10
37.941240
 20
81.887916
 30
0.0
 10
40.343333
 20
92.288781
 30
0.0
 10
45.998676
 20
101.369589
 30
0.0
  0
LWPOLYLINE
  5
117
100
AcDbEntity
  8
0
 62
7
100
AcDbPolyline
 90
2
 70
0
 10
38.233133
 20
60.581694
 30
0.0
 10
40.244868
 20
56.478517
 30
0.0
  0
SPLINE
  5
118
100
AcDbEntity
  8
0
 62
7
100
AcDbSpline
 70
8
 71
3
 72
8
 73
4
 74
0
 40
0
 40
0
 40
0
 40
0
 40
1
 40
1
 40
1
 40
1
 10
42.900199
 20
105.367664
 30
0.0
 10
42.400793
 20
106.019291
 30
0.0
 10
42.147558
 20
106.864313
 30
0.0
 10
42.189758
 20
107.747155
 30
0.0
  0
SPLINE
  5
119
100
AcDbEntity
  8
0
 62
7
100
AcDbSpline
 70
8
 71
3
 72
8
 73
4
 74
0
 40
0
 40
0
 40
0
 40
0
 40
1
 40
1
 40
1
 40
1
 10
42.189758
 20
107.747155
 30
0.0
 10
42.231984
 20
108.630001
 30
0.0
 10
42.562582
 20
109.437200
 30
0.0
 10
43.118250
 20
110.021570
 30
0.0
  0
LWPOLYLINE
  5
11a
100
AcDbEntity
  8
0
 62
7
100
AcDbPolyline
 90
2
 70
0
 10
45.998676
 20
101.369589
 30
0.0
 10
42.900199
 20
105.367664
 30
0.0
  0
SPLINE
  5
11b
100
AcDbEntity
  8
0
 62
7
100
AcDbSpline
 70
8
 71
3
 72
8
 73
4
 74
0
 40
0
 40
0
 40
0
 40
0
 40
1
 40
1
 40
1
 40
1
 10
47.792357
 20
114.931919
 30
0.0
 10
47.788840
 20
115.104273
 30
0.0
 10
47.173362
 20
132.193831
 30
0.0
 10
38.127627
 20
134.972712
 30
0.0
  0
SPLINE
  5
11c
100
AcDbEntity
  8
0
 62
7
100
AcDbSpline
 70
8
 71
3
 72
8
 73
4
 74
0
 40
0
 40
0
 40
0
 40
0
 40
1
 40
1
 40
1
 40
1
 10
38.127627
 20
134.972712
 30
0.0
 10
28.666911
 20
137.881920
 30
0.0
 10
20.008057
 20
130.213701
 30
0.0
 10
16.663387
 20
122.919652
 30
0.0
  0
LWPOLYLINE
  5
11d
100
AcDbEntity
  8
0
 62
7
100
AcDbPolyline
 90
2
 70
0
 10
43.118250
 20
110.021570
 30
0.0
 10
47.792357
 20
114.931919
 30
0.0
  0
SPLINE
  5
11e
100
AcDbEntity
  8
0
 62
7
100
AcDbSpline
 70
8
 71
3
 72
8
 73
4
 74
0
 40
0
 40
0
 40
0
 40
0
 40
1
 40
1
 40
1
 40
1
 10
21.435959
 20
123.276990
 30
0.0
 10
21.882604
 20
123.310622
 30
0.0
 10
22.301127
 20
123.028937
 30
0.0
 10
22.505120
 20
122.553902
 30
0.0
  0
SPLINE
  5
11f
100
AcDbEntity
  8
0
 62
7
100
AcDbSpline
 70
8
 71
3
 72
8
 73
4
 74
0
 40
0
 40
0
 40
0
 40
0
 40
1
 40
1
 40
1
 40
1
 10
22.505120
 20
122.553902
 30
0.0
 10
22.712634
 20
122.083021
 30
0.0
 10
22.663389
 20
121.507068
 30
0.0
 10
22.382032
 20
121.090869
 30
0.0
  0
LWPOLYLINE
  5
120
100
AcDbEntity
  8
0
 62
7
100
AcDbPolyline
 90
2
 70
0
 10
16.663387
 20
122.919652
 30
0.0
 10
21.435959
 20
123.276990
 30
0.0
  0
SPLINE
  5
121
100
AcDbEntity
  8
0
 62
7
100
AcDbSpline
 70
8
 71
3
 72
8
 73
4
 74
0
 40
0
 40
0
 40
0
 40
0
 40
1
 40
1
 40
1
 40
1
 10
21.664553
 20
110.925432
 30
0.0
 10
21.998672
 20
110.496608
 30
0.0
 10
22.072536
 20
109.853398
 30
0.0
 10
21.850965
 20
109.332098
 30
0.0
  0
SPLINE
  5
122
100
AcDbEntity
  8
0
 62
7
100
AcDbSpline
 70
8
 71
3
 72
8
 73
4
 74
0
 40
0
 40
0
 40
0
 40
0
 40
1
 40
1
 40
1
 40
1
 10
21.850965
 20
109.332098
 30
0.0
 10
21.625874
 20
108.806589
 30
0.0
 10
21.147565
 20
108.499675
 30
0.0
 10
20.662219
 20
108.571161
 30
0.0
  0
LWPOLYLINE
  5
123
100
AcDbEntity
  8
0
 62
7
100
AcDbPolyline
 90
3
 70
0
 10
22.382032
 20
121.090869
 30
0.0
 10
18.372645
 20
115.192571
 30
0.0
 10
21.664553
 20
110.925432
 30
0.0
  0
SPLINE
  5
124
100
AcDbEntity
  8
0
 62
7
100
AcDbSpline
 70
8
 71
3
 72
8
 73
4
 74
0
 40
0
 40
0
 40
0
 40
0
 40
1
 40
1
 40
1
 40
1
 10
8.229610
 20
102.857822
 30
0.0
 10
8.032658
 20
102.613977
 30
0.0
 10
7.775924
 20
102.475264
 30
0.0
 10
7.508628
 20
102.454248
 30
0.0
  0
SPLINE
  5
125
100
AcDbEntity
  8
0
 62
7
100
AcDbSpline
 70
8
 71
3
 72
8
 73
4
 74
0
 40
0
 40
0
 40
0
 40
0
 40
1
 40
1
 40
1
 40
1
 10
7.508628
 20
102.454248
 30
0.0
 10
7.350360
 20
102.445840
 30
0.0
 10
7.185072
 20
102.475268
 30
0.0
 10
7.030320
 20
102.550933
 30
0.0
  0
SPLINE
  5
126
100
AcDbEntity
  8
0
 62
7
100
AcDbSpline
 70
8
 71
3
 72
8
 73
4
 74
0
 40
0
 40
0
 40
0
 40
0
 40
1
 40
1
 40
1
 40
1
 10
7.030320
 20
102.550933
 30
0.0
 10
6.611797
 20
102.748512
 30
0.0
 10
6.344501
 20
103.223576
 30
0.0
 10
6.344501
 20
103.761705
 30
0.0
  0
LWPOLYLINE
  5
127
100
AcDbEntity
  8
0
 62
7
100
AcDbPolyline
 90
3
 70
0
 10
20.662219
 20
108.571161
 30
0.0
 10
13.617657
 20
109.554901
 30
0.0
 10
8.229610
 20
102.857822
 30
0.0
  0
SPLINE
  5
128
100
AcDbEntity
  8
0
 62
7
100
AcDbSpline
 70
8
 71
3
 72
8
 73
4
 74
0
 40
0
 40
0
 40
0
 40
0
 40
1
 40
1
 40
1
 40
1
 10
0.928332
 20
115.554117
 30
0.0
 10
0.435945
 20
115.835782
 30
0.0
 10
0.140506
 20
116.441172
 30
0.0
 10
0.179211
 20
117.092794
 30
0.0
  0
SPLINE
  5
129
100
AcDbEntity
  8
0
 62
7
100
AcDbSpline
 70
8
 71
3
 72
8
 73
4
 74
0
 40
0
 40
0
 40
0
 40
0
 40
1
 40
1
 40
1
 40
1
 10
0.179211
 20
117.092794
 30
0.0
 10
0.221415
 20
117.744446
 30
0.0
 10
0.583652
 20
118.290971
 30
0.0
 10
1.107681
 20
118.484341
 30
0.0
  0
LWPOLYLINE
  5
12a
100
AcDbEntity
  8
0
 62
7
100
AcDbPolyline
 90
3
 70
0
 10
6.344501
 20
103.761705
 30
0.0
 10
6.333961
 20
112.485150
 30
0.0
 10
0.928332
 20
115.554117
 30
0.0
  0
SPLINE
  5
12b
100
AcDbEntity
  8
0
 62
7
100
AcDbSpline
 70
8
 71
3
 72
8
 73
4
 74
0
 40
0
 40
0
 40
0
 40
0
 40
1
 40
1
 40
1
 40
1
 10
8.352716
 20
128.191548
 30
0.0
 10
8.472283
 20
128.729681
 30
0.0
 10
8.841582
 20
129.137463
 30
0.0
 10
9.298789
 20
129.229940
 30
0.0
  0
SPLINE
  5
12c
100
AcDbEntity
  8
0
 62
7
100
AcDbSpline
 70
8
 71
3
 72
8
 73
4
 74
0
 40
0
 40
0
 40
0
 40
0
 40
1
 40
1
 40
1
 40
1
 10
9.298789
 20
129.229940
 30
0.0
 10
9.759516
 20
129.326651
 30
0.0
 10
10.220243
 20
129.091223
 30
0.0
 10
10.484018
 20
128.637179
 30
0.0
  0
LWPOLYLINE
  5
12d
100
AcDbEntity
  8
0
 62
7
100
AcDbPolyline
 90
3
 70
0
 10
1.107681
 20
118.484341
 30
0.0
 10
6.661039
 20
120.540136
 30
0.0
 10
8.352716
 20
128.191548
 30
0.0
  0
SPLINE
  5
12e
100
AcDbEntity
  8
0
 62
7
100
AcDbSpline
 70
8
 71
3
 72
8
 73
4
 74
0
 40
0
 40
0
 40
0
 40
0
 40
1
 40
1
 40
1
 40
1
 10
12.664561
 20
124.853516
 30
0.0
 10
14.700897
 20
129.604111
 30
0.0
 10
18.228459
 20
133.925907
 30
0.0
 10
22.512161
 20
136.868756
 30
0.0
  0
SPLINE
  5
12f
100
AcDbEntity
  8
0
 62
7
100
AcDbSpline
 70
8
 71
3
 72
8
 73
4
 74
0
 40
0
 40
0
 40
0
 40
0
 40
1
 40
1
 40
1
 40
1
 10
22.512161
 20
136.868756
 30
0.0
 10
27.826345
 20
140.522093
 30
0.0
 10
33.752479
 20
141.610935
 30
0.0
 10
39.196809
 20
139.937723
 30
0.0
  0
SPLINE
  5
130
100
AcDbEntity
  8
0
 62
7
100
AcDbSpline
 70
8
 71
3
 72
8
 73
4
 74
0
 40
0
 40
0
 40
0
 40
0
 40
1
 40
1
 40
1
 40
1
 10
39.196809
 20
139.937723
 30
0.0
 10
48.210880
 20
137.167229
 30
0.0
 10
50.925997
 20
125.320163
 30
0.0
 10
51.738420
 20
119.035075
 30
0.0
  0
LWPOLYLINE
  5
131
100
AcDbEntity
  8
0
 62
7
100
AcDbPolyline
 90
2
 70
0
 10
10.484018
 20
128.637179
 30
0.0
 10
12.664561
 20
124.853516
 30
0.0
  0
SPLINE
  5
132
100
AcDbEntity
  8
0
 62
7
100
AcDbSpline
 70
8
 71
3
 72
8
 73
4
 74
0
 40
0
 40
0
 40
0
 40
0
 40
1
 40
1
 40
1
 40
1
 10
55.139352
 20
122.591726
 30
0.0
 10
55.691525
 20
123.167684
 30
0.0
 10
56.398445
 20
123.453556
 30
0.0
 10
57.133506
 20
123.390508
 30
0.0
  0
SPLINE
  5
133
100
AcDbEntity
  8
0
 62
7
100
AcDbSpline
 70
8
 71
3
 72
8
 73
4
 74
0
 40
0
 40
0
 40
0
 40
0
 40
1
 40
1
 40
1
 40
1
 10
57.133506
 20
123.390508
 30
0.0
 10
57.865027
 20
123.327439
 30
0.0
 10
58.533264
 20
122.923835
 30
0.0
 10
59.008052
 20
122.255405
 30
0.0
  0
LWPOLYLINE
  5
134
100
AcDbEntity
  8
0
 62
7
100
AcDbPolyline
 90
2
 70
0
 10
51.738420
 20
119.035075
 30
0.0
 10
55.139352
 20
122.591726
 30
0.0
  0
SPLINE
  5
135
100
AcDbEntity
  8
0
 62
7
100
AcDbSpline
 70
8
 71
3
 72
8
 73
4
 74
0
 40
0
 40
0
 40
0
 40
0
 40
1
 40
1
 40
1
 40
1
 10
62.001023
 20
117.370276
 30
0.0
 10
62.911937
 20
117.925217
 30
0.0
 10
65.405475
 20
119.316760
 30
0.0
 10
66.372650
 20
119.825440
 30
0.0
  0
SPLINE
  5
136
100
AcDbEntity
  8
0
 62
7
100
AcDbSpline
 70
8
 71
3
 72
8
 73
4
 74
0
 40
0
 40
0
 40
0
 40
0
 40
1
 40
1
 40
1
 40
1
 10
66.372650
 20
119.825440
 30
0.0
 10
65.918964
 20
119.859072
 30
0.0
 10
65.475819
 20
119.901134
 30
0.0
 10
65.039714
 20
119.955766
 30
0.0
  0
SPLINE
  5
137
100
AcDbEntity
  8
0
 62
7
100
AcDbSpline
 70
8
 71
3
 72
8
 73
4
 74
0
 40
0
 40
0
 40
0
 40
0
 40
1
 40
1
 40
1
 40
1
 10
65.039714
 20
119.955766
 30
0.0
 10
64.839242
 20
119.976786
 30
0.0
 10
64.638773
 20
120.006240
 30
0.0
 10
64.445341
 20
120.039852
 30
0.0
  0
SPLINE
  5
138
100
AcDbEntity
  8
0
 62
7
100
AcDbSpline
 70
8
 71
3
 72
8
 73
4
 74
0
 40
0
 40
0
 40
0
 40
0
 40
1
 40
1
 40
1
 40
1
 10
64.445341
 20
120.039852
 30
0.0
 10
64.297635
 20
120.060872
 30
0.0
 10
64.149903
 20
120.086092
 30
0.0
 10
64.005716
 20
120.111338
 30
0.0
  0
SPLINE
  5
139
100
AcDbEntity
  8
0
 62
7
100
AcDbSpline
 70
8
 71
3
 72
8
 73
4
 74
0
 40
0
 40
0
 40
0
 40
0
 40
1
 40
1
 40
1
 40
1
 10
64.005716
 20
120.111338
 30
0.0
 10
63.858010
 20
120.136562
 30
0.0
 10
63.710278
 20
120.165965
 30
0.0
 10
63.566091
 20
120.195398
 30
0.0
  0
LWPOLYLINE
  5
13a
100
AcDbEntity
  8
0
 62
7
100
AcDbPolyline
 90
2
 70
0
 10
59.008052
 20
122.255405
 30
0.0
 10
62.001023
 20
117.370276
 30
0.0
  0
SPLINE
  5
13b
100
AcDbEntity
  8
0
 62
7
100
AcDbSpline
 70
8
 71
3
 72
8
 73
4
 74
0
 40
0
 40
0
 40
0
 40
0
 40
1
 40
1
 40
1
 40
1
 10
63.548506
 20
120.195398
 30
0.0
 10
63.418377
 20
120.224826
 30
0.0
 10
63.291751
 20
120.254259
 30
0.0
 10
63.165143
 20
120.283692
 30
0.0
  0
SPLINE
  5
13c
100
AcDbEntity
  8
0
 62
7
100
AcDbSpline
 70
8
 71
3
 72
8
 73
4
 74
0
 40
0
 40
0
 40
0
 40
0
 40
1
 40
1
 40
1
 40
1
 10
63.165143
 20
120.283692
 30
0.0
 10
63.003375
 20
120.321528
 30
0.0
 10
62.845106
 20
120.359361
 30
0.0
 10
62.690355
 20
120.401393
 30
0.0
  0
SPLINE
  5
13d
100
AcDbEntity
  8
0
 62
7
100
AcDbSpline
 70
8
 71
3
 72
8
 73
4
 74
0
 40
0
 40
0
 40
0
 40
0
 40
1
 40
1
 40
1
 40
1
 10
62.690355
 20
120.401393
 30
0.0
 10
54.376170
 20
122.650587
 30
0.0
 10
42.745448
 20
161.950225
 30
0.0
 10
64.072539
 20
167.327248
 30
0.0
  0
SPLINE
  5
13e
100
AcDbEntity
  8
0
 62
7
100
AcDbSpline
 70
8
 71
3
 72
8
 73
4
 74
0
 40
0
 40
0
 40
0
 40
0
 40
1
 40
1
 40
1
 40
1
 10
64.072539
 20
167.327248
 30
0.0
 10
88.540312
 20
173.494610
 30
0.0
 10
109.223785
 20
166.780698
 30
0.0
 10
114.794703
 20
161.357464
 30
0.0
  0
SPLINE
  5
13f
100
AcDbEntity
  8
0
 62
7
100
AcDbSpline
 70
8
 71
3
 72
8
 73
4
 74
0
 40
0
 40
0
 40
0
 40
0
 40
1
 40
1
 40
1
 40
1
 10
114.794703
 20
161.357464
 30
0.0
 10
121.164008
 20
155.160669
 30
0.0
 10
117.829874
 20
138.281320
 30
0.0
 10
113.152271
 20
127.468460
 30
0.0
  0
SPLINE
  5
140
100
AcDbEntity
  8
0
 62
7
100
AcDbSpline
 70
8
 71
3
 72
8
 73
4
 74
0
 40
0
 40
0
 40
0
 40
0
 40
1
 40
1
 40
1
 40
1
 10
113.152271
 20
127.468460
 30
0.0
 10
113.096010
 20
127.342317
 30
0.0
 10
113.043244
 20
127.216199
 30
0.0
 10
112.986983
 20
127.094294
 30
0.0
  0
SPLINE
  5
141
100
AcDbEntity
  8
0
 62
7
100
AcDbSpline
 70
8
 71
3
 72
8
 73
4
 74
0
 40
0
 40
0
 40
0
 40
0
 40
1
 40
1
 40
1
 40
1
 10
112.986983
 20
127.094294
 30
0.0
 10
112.934220
 20
126.976567
 30
0.0
 10
112.881455
 20
126.863074
 30
0.0
 10
112.828714
 20
126.749556
 30
0.0
  0
SPLINE
  5
142
100
AcDbEntity
  8
0
 62
7
100
AcDbSpline
 70
8
 71
3
 72
8
 73
4
 74
0
 40
0
 40
0
 40
0
 40
0
 40
1
 40
1
 40
1
 40
1
 10
112.828714
 20
126.749556
 30
0.0
 10
112.804095
 20
126.699107
 30
0.0
 10
112.782993
 20
126.648662
 30
0.0
 10
112.758370
 20
126.602396
 30
0.0
  0
SPLINE
  5
143
100
AcDbEntity
  8
0
 62
7
100
AcDbSpline
 70
8
 71
3
 72
8
 73
4
 74
0
 40
0
 40
0
 40
0
 40
0
 40
1
 40
1
 40
1
 40
1
 10
112.758370
 20
126.602396
 30
0.0
 10
112.695068
 20
126.463679
 30
0.0
 10
112.628241
 20
126.329149
 30
0.0
 10
112.557898
 20
126.194614
 30
0.0
  0
SPLINE
  5
144
100
AcDbEntity
  8
0
 62
7
100
AcDbSpline
 70
8
 71
3
 72
8
 73
4
 74
0
 40
0
 40
0
 40
0
 40
0
 40
1
 40
1
 40
1
 40
1
 10
112.557898
 20
126.194614
 30
0.0
 10
112.248402
 20
125.564004
 30
0.0
 10
111.928362
 20
124.988046
 30
0.0
 10
111.601285
 20
124.458333
 30
0.0
  0
SPLINE
  5
145
100
AcDbEntity
  8
0
 62
7
100
AcDbSpline
 70
8
 71
3
 72
8
 73
4
 74
0
 40
0
 40
0
 40
0
 40
0
 40
1
 40
1
 40
1
 40
1
 10
111.601285
 20
124.458333
 30
0.0
 10
111.439495
 20
124.193477
 30
0.0
 10
111.274207
 20
123.941241
 30
0.0
 10
111.108897
 20
123.701605
 30
0.0
  0
SPLINE
  5
146
100
AcDbEntity
  8
0
 62
7
100
AcDbSpline
 70
8
 71
3
 72
8
 73
4
 74
0
 40
0
 40
0
 40
0
 40
0
 40
1
 40
1
 40
1
 40
1
 10
111.108897
 20
123.701605
 30
0.0
 10
111.094829
 20
123.676381
 30
0.0
 10
111.080761
 20
123.655364
 30
0.0
 10
111.063176
 20
123.634327
 30
0.0
  0
SPLINE
  5
147
100
AcDbEntity
  8
0
 62
7
100
AcDbSpline
 70
8
 71
3
 72
8
 73
4
 74
0
 40
0
 40
0
 40
0
 40
0
 40
1
 40
1
 40
1
 40
1
 10
111.063176
 20
123.634327
 30
0.0
 10
110.943609
 20
123.457765
 30
0.0
 10
110.820503
 20
123.289614
 30
0.0
 10
110.700936
 20
123.125652
 30
0.0
  0
SPLINE
  5
148
100
AcDbEntity
  8
0
 62
7
100
AcDbSpline
 70
8
 71
3
 72
8
 73
4
 74
0
 40
0
 40
0
 40
0
 40
0
 40
1
 40
1
 40
1
 40
1
 10
110.700936
 20
123.125652
 30
0.0
 10
110.627072
 20
123.024758
 30
0.0
 10
110.549709
 20
122.923839
 30
0.0
 10
110.472324
 20
122.827154
 30
0.0
  0
SPLINE
  5
149
100
AcDbEntity
  8
0
 62
7
100
AcDbSpline
 70
8
 71
3
 72
8
 73
4
 74
0
 40
0
 40
0
 40
0
 40
0
 40
1
 40
1
 40
1
 40
1
 10
110.472324
 20
122.827154
 30
0.0
 10
110.398460
 20
122.734677
 30
0.0
 10
110.328138
 20
122.646383
 30
0.0
 10
110.257791
 20
122.558089
 30
0.0
  0
SPLINE
  5
14a
100
AcDbEntity
  8
0
 62
7
100
AcDbSpline
 70
8
 71
3
 72
8
 73
4
 74
0
 40
0
 40
0
 40
0
 40
0
 40
1
 40
1
 40
1
 40
1
 10
110.257791
 20
122.558089
 30
0.0
 10
110.187447
 20
122.469821
 30
0.0
 10
110.113583
 20
122.385735
 30
0.0
 10
110.043257
 20
122.301645
 30
0.0
  0
SPLINE
  5
14b
100
AcDbEntity
  8
0
 62
7
100
AcDbSpline
 70
8
 71
3
 72
8
 73
4
 74
0
 40
0
 40
0
 40
0
 40
0
 40
1
 40
1
 40
1
 40
1
 10
110.043257
 20
122.301645
 30
0.0
 10
109.972914
 20
122.217560
 30
0.0
 10
109.899049
 20
122.137682
 30
0.0
 10
109.828702
 20
122.057801
 30
0.0
  0
SPLINE
  5
14c
100
AcDbEntity
  8
0
 62
7
100
AcDbSpline
 70
8
 71
3
 72
8
 73
4
 74
0
 40
0
 40
0
 40
0
 40
0
 40
1
 40
1
 40
1
 40
1
 10
109.828702
 20
122.057801
 30
0.0
 10
109.754860
 20
121.973741
 30
0.0
 10
109.680995
 20
121.893863
 30
0.0
 10
109.607131
 20
121.813982
 30
0.0
  0
SPLINE
  5
14d
100
AcDbEntity
  8
0
 62
7
100
AcDbSpline
 70
8
 71
3
 72
8
 73
4
 74
0
 40
0
 40
0
 40
0
 40
0
 40
1
 40
1
 40
1
 40
1
 10
109.607131
 20
121.813982
 30
0.0
 10
109.536809
 20
121.742496
 30
0.0
 10
109.469986
 20
121.671031
 30
0.0
 10
109.399639
 20
121.599570
 30
0.0
  0
SPLINE
  5
14e
100
AcDbEntity
  8
0
 62
7
100
AcDbSpline
 70
8
 71
3
 72
8
 73
4
 74
0
 40
0
 40
0
 40
0
 40
0
 40
1
 40
1
 40
1
 40
1
 10
109.399639
 20
121.599570
 30
0.0
 10
108.798225
 20
120.985767
 30
0.0
 10
108.200331
 20
120.498104
 30
0.0
 10
107.623558
 20
120.111338
 30
0.0
  0
SPLINE
  5
14f
100
AcDbEntity
  8
0
 62
7
100
AcDbSpline
 70
8
 71
3
 72
8
 73
4
 74
0
 40
0
 40
0
 40
0
 40
0
 40
1
 40
1
 40
1
 40
1
 10
107.623558
 20
120.111338
 30
0.0
 10
107.514531
 20
120.035643
 30
0.0
 10
107.409003
 20
119.964178
 30
0.0
 10
107.303500
 20
119.901134
 30
0.0
  0
SPLINE
  5
150
100
AcDbEntity
  8
0
 62
7
100
AcDbSpline
 70
8
 71
3
 72
8
 73
4
 74
0
 40
0
 40
0
 40
0
 40
0
 40
1
 40
1
 40
1
 40
1
 10
107.303500
 20
119.901134
 30
0.0
 10
107.036204
 20
119.732963
 30
0.0
 10
106.768930
 20
119.585829
 30
0.0
 10
106.512175
 20
119.459686
 30
0.0
  0
SPLINE
  5
151
100
AcDbEntity
  8
0
 62
7
100
AcDbSpline
 70
8
 71
3
 72
8
 73
4
 74
0
 40
0
 40
0
 40
0
 40
0
 40
1
 40
1
 40
1
 40
1
 10
106.512175
 20
119.459686
 30
0.0
 10
107.954159
 20
118.660929
 30
0.0
 10
110.482882
 20
117.416512
 30
0.0
 10
111.836916
 20
116.449584
 30
0.0
  0
SPLINE
  5
152
100
AcDbEntity
  8
0
 62
7
100
AcDbSpline
 70
8
 71
3
 72
8
 73
4
 74
0
 40
0
 40
0
 40
0
 40
0
 40
1
 40
1
 40
1
 40
1
 10
111.836916
 20
116.449584
 30
0.0
 10
116.215585
 20
113.321756
 30
0.0
 10
119.862714
 20
109.470811
 30
0.0
 10
122.676314
 20
105.077579
 30
0.0
  0
LWPOLYLINE
  5
153
100
AcDbEntity
  8
0
 62
7
100
AcDbPolyline
 90
2
 70
0
 10
63.566091
 20
120.195398
 30
0.0
 10
63.548506
 20
120.195398
 30
0.0
  0
SPLINE
  5
154
100
AcDbEntity
  8
0
 62
7
100
AcDbSpline
 70
8
 71
3
 72
8
 73
4
 74
0
 40
0
 40
0
 40
0
 40
0
 40
1
 40
1
 40
1
 40
1
 10
124.005729
 20
107.133348
 30
0.0
 10
124.332828
 20
107.646257
 30
0.0
 10
125.001047
 20
107.545364
 30
0.0
 10
125.219098
 20
106.952577
 30
0.0
  0
LWPOLYLINE
  5
155
100
AcDbEntity
  8
0
 62
7
100
AcDbPolyline
 90
2
 70
0
 10
122.676314
 20
105.077579
 30
0.0
 10
124.005729
 20
107.133348
 30
0.0
  0
SPLINE
  5
156
100
AcDbEntity
  8
0
 62
7
100
AcDbSpline
 70
8
 71
3
 72
8
 73
4
 74
0
 40
0
 40
0
 40
0
 40
0
 40
1
 40
1
 40
1
 40
1
 10
132.854516
 20
109.739880
 30
0.0
 10
133.473511
 20
110.193928
 30
0.0
 10
134.250754
 20
110.147687
 30
0.0
 10
134.831070
 20
109.626387
 30
0.0
  0
SPLINE
  5
157
100
AcDbEntity
  8
0
 62
7
100
AcDbSpline
 70
8
 71
3
 72
8
 73
4
 74
0
 40
0
 40
0
 40
0
 40
0
 40
1
 40
1
 40
1
 40
1
 10
134.831070
 20
109.626387
 30
0.0
 10
135.411382
 20
109.105061
 30
0.0
 10
135.668116
 20
108.230632
 30
0.0
 10
135.481707
 20
107.389818
 30
0.0
  0
LWPOLYLINE
  5
158
100
AcDbEntity
  8
0
 62
7
100
AcDbPolyline
 90
3
 70
0
 10
125.219098
 20
106.952577
 30
0.0
 10
126.013947
 20
104.779082
 30
0.0
 10
132.854516
 20
109.739880
 30
0.0
  0
SPLINE
  5
159
100
AcDbEntity
  8
0
 62
7
100
AcDbSpline
 70
8
 71
3
 72
8
 73
4
 74
0
 40
0
 40
0
 40
0
 40
0
 40
1
 40
1
 40
1
 40
1
 10
140.968242
 20
71.125506
 30
0.0
 10
141.450071
 20
70.595789
 30
0.0
 10
141.604819
 20
69.784407
 30
0.0
 10
141.365663
 20
69.052903
 30
0.0
  0
SPLINE
  5
15a
100
AcDbEntity
  8
0
 62
7
100
AcDbSpline
 70
8
 71
3
 72
8
 73
4
 74
0
 40
0
 40
0
 40
0
 40
0
 40
1
 40
1
 40
1
 40
1
 10
141.365663
 20
69.052903
 30
0.0
 10
141.232017
 20
68.649304
 30
0.0
 10
140.996360
 20
68.325582
 30
0.0
 10
140.697426
 20
68.119587
 30
0.0
  0
SPLINE
  5
15b
100
AcDbEntity
  8
0
 62
7
100
AcDbSpline
 70
8
 71
3
 72
8
 73
4
 74
0
 40
0
 40
0
 40
0
 40
0
 40
1
 40
1
 40
1
 40
1
 10
140.697426
 20
68.119587
 30
0.0
 10
140.627082
 20
68.069138
 30
0.0
 10
140.553239
 20
68.027110
 30
0.0
 10
140.475855
 20
67.989261
 30
0.0
  0
LWPOLYLINE
  5
15c
100
AcDbEntity
  8
0
 62
7
100
AcDbPolyline
 90
3
 70
0
 10
135.481707
 20
107.389818
 30
0.0
 10
130.065542
 20
83.098688
 30
0.0
 10
140.968242
 20
71.125506
 30
0.0
  0
SPLINE
  5
15d
100
AcDbEntity
  8
0
 62
7
100
AcDbSpline
 70
8
 71
3
 72
8
 73
4
 74
0
 40
0
 40
0
 40
0
 40
0
 40
1
 40
1
 40
1
 40
1
 10
87.590722
 20
163.808416
 30
0.0
 10
87.639964
 20
162.088964
 30
0.0
 10
86.518041
 20
160.646972
 30
0.0
 10
85.079580
 20
160.588111
 30
0.0
  0
SPLINE
  5
15e
100
AcDbEntity
  8
0
 62
7
100
AcDbSpline
 70
8
 71
3
 72
8
 73
4
 74
0
 40
0
 40
0
 40
0
 40
0
 40
1
 40
1
 40
1
 40
1
 10
85.079580
 20
160.588111
 30
0.0
 10
83.641138
 20
160.525041
 30
0.0
 10
82.434811
 20
161.870348
 30
0.0
 10
82.385569
 20
163.589821
 30
0.0
  0
SPLINE
  5
15f
100
AcDbEntity
  8
0
 62
7
100
AcDbSpline
 70
8
 71
3
 72
8
 73
4
 74
0
 40
0
 40
0
 40
0
 40
0
 40
1
 40
1
 40
1
 40
1
 10
82.385569
 20
163.589821
 30
0.0
 10
82.332807
 20
165.305090
 30
0.0
 10
83.458251
 20
166.747082
 30
0.0
 10
84.893190
 20
166.810126
 30
0.0
  0
SPLINE
  5
160
100
AcDbEntity
  8
0
 62
7
100
AcDbSpline
 70
8
 71
3
 72
8
 73
4
 74
0
 40
0
 40
0
 40
0
 40
0
 40
1
 40
1
 40
1
 40
1
 10
84.893190
 20
166.810126
 30
0.0
 10
86.331629
 20
166.868991
 30
0.0
 10
87.537956
 20
165.527893
 30
0.0
 10
87.590722
 20
163.808416
 30
0.0
  0
LWPOLYLINE
  5
161
100
AcDbEntity
  8
0
 62
7
100
AcDbPolyline
 90
2
 70
0
 10
140.475855
 20
67.989261
 30
0.0
 10
159.752524
 20
39.460446
 30
0.0
  0
LWPOLYLINE
  5
162
100
AcDbEntity
  8
0
 62
7
100
AcDbPolyline
 90
1
 70
1
 10
87.590722
 20
163.808416
 30
0.0
  0
LWPOLYLINE
  5
163
100
AcDbEntity
  8
[fixed]_BG
 62
7
100
AcDbPolyline
 90
4
 70
1
 10
34.444200
 20
122.781740
 30
0.0
 10
134.444200
 20
122.781740
 30
0.0
 10
134.444200
 20
22.781740
 30
0.0
 10
34.444200
 20
22.781740
 30
0.0
  0
ENDSEC
  0
SECTION
  2
OBJECTS
  0
DICTIONARY
  5
C
330
0
100
AcDbDictionary
  3
ACAD_GROUP
350
D
  3
ACAD_MLINESTYLE
350
17
  0
DICTIONARY
  5
D
330
C
100
AcDbDictionary
  0
DICTIONARY
  5
1A
330
C
100
AcDbDictionary
  0
DICTIONARY
  5
17
330
C
100
AcDbDictionary
  3
STANDARD
350
18
  0
DICTIONARY
  5
19
330
C
100
AcDbDictionary
  0
ENDSEC
  0
EOF
